<?xml version="1.0" encoding="utf-8"?>
<!-- Generator: $$$/GeneralStr/196=Adobe Illustrator 27.6.0, SVG Export Plug-In . SVG Version: 6.00 Build 0)  -->
<svg version="1.1" id="图层_1" xmlns="http://www.w3.org/2000/svg" xmlns:xlink="http://www.w3.org/1999/xlink" x="0px" y="0px"
	 viewBox="0 0 200 200" style="enable-background:new 0 0 200 200;" xml:space="preserve">
<path d="M59.8,23l27,27h26.4l27-27c3.3-3.3,8.5-3.3,11.8,0s3.3,8.5,0,11.8l0,0L136.8,50h17.4c16.1,0,29.2,13.1,29.2,29.2
	c0,0,0,0,0,0v66.7c0,16.1-13.1,29.2-29.2,29.2H45.8c-16.1,0-29.2-13.1-29.2-29.2l0,0V79.2C16.7,63.1,29.7,50,45.8,50l0,0h17.4
	L48,34.8c-3.3-3.3-3.3-8.5,0-11.8S56.5,19.7,59.8,23L59.8,23z M154.2,66.7H45.8c-6.4,0-11.8,4.9-12.4,11.3l-0.1,1.2v66.7
	c0,6.4,4.9,11.8,11.3,12.4l1.2,0.1h108.3c6.4,0,11.8-4.9,12.4-11.3l0.1-1.2V79.2C166.7,72.3,161.1,66.7,154.2,66.7z M66.7,91.7
	c4.6,0,8.3,3.7,8.3,8.3v16.7c0,4.6-3.7,8.3-8.3,8.3s-8.3-3.7-8.3-8.3V100C58.3,95.4,62.1,91.7,66.7,91.7z M133.3,91.7
	c4.6,0,8.3,3.7,8.3,8.3l0,0v16.7c0,4.6-3.7,8.3-8.3,8.3c-4.6,0-8.3-3.7-8.3-8.3c0,0,0,0,0,0V100C125,95.4,128.7,91.7,133.3,91.7
	L133.3,91.7L133.3,91.7z"/>
</svg>
