<?xml version="1.0" encoding="utf-8"?>
<!-- Generator: $$$/GeneralStr/196=Adobe Illustrator 27.6.0, SVG Export Plug-In . SVG Version: 6.00 Build 0)  -->
<svg version="1.1" id="图层_1" xmlns="http://www.w3.org/2000/svg" xmlns:xlink="http://www.w3.org/1999/xlink" x="0px" y="0px"
	 viewBox="0 0 200 200" style="enable-background:new 0 0 200 200;" xml:space="preserve">
<style type="text/css">
	.st0{fill:#FFFFFF;}
</style>
<path class="st0" d="M150,166.7V150h-16.7l8.3-8.3h16.7V175H50v-33.3h16.7L75,150H58.3v16.7H150z M138.3,110
	c7.5-8.3,11.7-19.2,11.7-30.8c0-25-20.8-45.8-45.8-45.8S58.3,54.2,58.3,79.2c0,11.7,4.2,22.5,11.7,30.8l34.2,34.2L138.3,110
	L138.3,110z M141.7,118.3L105,155l-38.3-36.7C56.7,108.3,50,95,50,79.2c0-30,24.2-54.2,54.2-54.2s54.2,24.2,54.2,54.2
	c0,14.2-5,26.7-14.2,36.7L141.7,118.3L141.7,118.3z M104.2,100c-11.7,0-20.8-9.2-20.8-20.8s9.2-20.8,20.8-20.8S125,67.5,125,79.2
	S115.8,100,104.2,100z M104.2,91.7c6.7,0,12.5-5.8,12.5-12.5c0-6.7-5.8-12.5-12.5-12.5s-12.5,5.8-12.5,12.5
	C91.7,85.8,97.5,91.7,104.2,91.7L104.2,91.7z"/>
</svg>
